<svg xmlns="http://www.w3.org/2000/svg" shape-rendering="geometricPrecision" text-rendering="geometricPrecision" image-rendering="optimizeQuality" fill-rule="evenodd" clip-rule="evenodd" viewBox="0 0 512 471.776"><path fill="#1470B8" fill-rule="nonzero" d="M256.052 0c8.099 0 16.092.392 24.014 1.172 71.324 7.035 135.514 46.659 174.11 106.469h10.355c26.081 0 47.469 21.388 47.469 47.469v161.556c0 26.021-21.447 47.468-47.469 47.468h-10.309c-41.496 64.348-113.636 107.642-198.17 107.642-77.796 0-152.418-38.596-195.555-103.729a223.933 223.933 0 01-2.582-3.913H47.467C21.476 364.134 0 342.654 0 316.666V155.11c0-26.145 21.322-47.469 47.467-47.469h10.538C101.366 40.59 174.926 0 256.052 0z"/><path fill="#BBDEFB" fill-rule="nonzero" d="M244.154 107.018V40.692c-12.708 11.21-24.346 22.361-34.921 33.459-10.465 10.988-19.908 21.939-28.325 32.867h63.246zm180.734 258.138H363.93c-9.784 14.101-21.235 28.099-34.32 42.004-12.165 12.918-25.742 25.759-40.704 38.537 17.334-2.745 33.59-7.074 49.815-14.141 33.962-14.563 63.773-36.907 86.167-66.4zm-201.691 80.513c-27.78-23.738-54.112-50.415-74.979-80.513H87.392c26.291 34.626 64.442 60.854 105.944 73.741a190.576 190.576 0 0020.086 5.064c2.53.49 5.046.945 7.522 1.35l2.253.358zM87.147 107.018h64.583c9.711-13.903 20.938-27.853 33.694-41.834 11.85-12.991 25.036-26.027 39.572-39.105l-3.435.505c-30.169 4.696-59.218 16.652-84.572 33.577-18.819 12.546-36.157 28.815-49.842 46.857zm200.077-80.756c14.513 13.013 27.664 25.991 39.46 38.922 12.745 13.973 23.937 27.921 33.594 41.834h64.469c-13.658-17.964-30.979-34.216-49.728-46.722-25.251-17.01-54.577-28.906-84.682-33.567l-3.113-.467zm-19.38 14.43v66.326h63.254c-8.421-10.928-17.858-21.879-28.326-32.867-10.573-11.098-22.214-22.249-34.928-33.459zm0 324.464v67.312c13.454-11.173 25.772-22.415 36.938-33.689 11.078-11.184 21.017-22.407 29.797-33.623h-66.735zm-23.69 67.318v-67.318h-66.742c19.358 24.915 42.46 47.24 66.742 67.318z"/><path fill="#fff" d="M47.467 128.052h417.064c14.882 0 27.058 12.301 27.058 27.058v161.556c0 14.757-12.297 27.058-27.058 27.058H47.467c-14.761 0-27.058-12.173-27.058-27.058V155.11c0-14.886 12.18-27.058 27.058-27.058z"/><path fill="#1F3647" fill-rule="nonzero" d="M191.192 179.228l35.293.15-17.745 113.17h-47.261l-8.33-41.647h-2.171l-8.15 41.647h-47.26l-17.745-113.17 35.293-.15 11.061 63.344 16.677-63.194h22.6l16.495 63.194 11.243-63.344zm120.85 70.588h-36.215v16.311h44.363v26.421h-80.577v-113.17h79.672l-4.528 26.42h-38.93v17.761h36.215v26.257zm27.614 42.732v-113.17h58.669c10.864 0 18.62 2.112 23.267 6.337 4.648 4.225 6.971 10.382 6.971 18.47 0 8.087-1.479 14.335-4.437 18.739-2.956 4.407-6.911 7.274-11.859 8.603v1.085c14.605 2.536 21.91 12.494 21.91 29.879 0 9.053-2.414 16.325-7.243 21.819-4.829 5.492-12.253 8.238-22.272 8.238h-65.006zm50.338-47.638H373.32v23.572h16.493c5.07 0 7.605-5.631 7.605-11.786 0-6.157-2.477-11.786-7.424-11.786zm-2.715-43.277H373.32v21.943h13.778c4.587 0 6.88-5.359 6.88-10.972 0-5.614-2.237-10.971-6.699-10.971z"/></svg>